<svg aria-hidden="true" style="position: absolute; width: 0; height: 0; overflow: hidden;" version="1.1" xmlns="http://www.w3.org/2000/svg" xmlns:xlink="http://www.w3.org/1999/xlink">
<defs>
<symbol id="icon-ellipse" viewBox="0 0 32 32">
<path fill="#2196f3" style="fill: var(--color1, #2196f3)" d="M32.011 16.006c0 0.006 0 0.013 0 0.020 0 4.413-1.792 8.408-4.688 11.297v0c-2.889 2.896-6.884 4.688-11.297 4.688-0.007 0-0.014 0-0.021 0h0.001c-0.006 0-0.013 0-0.020 0-4.413 0-8.408-1.792-11.297-4.688v0c-2.896-2.889-4.688-6.884-4.688-11.297 0-0.007 0-0.014 0-0.021v0.001c0-0.006 0-0.013 0-0.020 0-4.413 1.792-8.408 4.688-11.297v0c2.889-2.896 6.884-4.688 11.297-4.688 0.007 0 0.014 0 0.021 0h-0.001c0.006 0 0.013 0 0.020 0 4.413 0 8.408 1.792 11.297 4.688v0c2.896 2.889 4.688 6.884 4.688 11.297 0 0.007 0 0.014 0 0.021v-0.001z"></path>
<path fill="#fff" style="fill: var(--color2, #fff)" d="M23.266 13.008c-0.033-0.773-0.159-1.304-0.338-1.765-0.193-0.505-0.479-0.936-0.841-1.29l-0.001-0.001c-0.354-0.36-0.784-0.645-1.263-0.831l-0.024-0.008c-0.463-0.179-0.992-0.304-1.765-0.338-0.778-0.037-1.026-0.046-3.002-0.046s-2.223 0.009-2.999 0.043c-0.773 0.033-1.304 0.159-1.765 0.338-0.505 0.193-0.936 0.479-1.29 0.84l-0.001 0.001c-0.36 0.355-0.645 0.784-0.83 1.263l-0.008 0.024c-0.18 0.463-0.304 0.992-0.338 1.765-0.037 0.778-0.046 1.026-0.046 3.002s0.009 2.223 0.043 2.999c0.034 0.773 0.159 1.304 0.338 1.765 0.194 0.505 0.48 0.935 0.841 1.29h0.001c0.364 0.37 0.805 0.656 1.288 0.838 0.463 0.18 0.992 0.305 1.765 0.338 0.776 0.034 1.024 0.043 2.999 0.043s2.223-0.009 2.999-0.043c0.773-0.033 1.304-0.159 1.765-0.338 0.981-0.387 1.743-1.148 2.121-2.104l0.009-0.025c0.179-0.463 0.304-0.992 0.338-1.765 0.034-0.776 0.042-1.024 0.042-2.999s-0.003-2.223-0.036-2.999zM21.957 18.949c-0.032 0.711-0.151 1.094-0.25 1.35-0.251 0.637-0.745 1.132-1.366 1.377l-0.016 0.006c-0.255 0.099-0.642 0.218-1.35 0.25-0.768 0.034-0.997 0.043-2.939 0.043s-2.175-0.009-2.939-0.043c-0.711-0.031-1.094-0.151-1.35-0.25-0.328-0.122-0.607-0.307-0.835-0.542l-0.001-0.001c-0.235-0.229-0.42-0.508-0.538-0.82l-0.005-0.016c-0.099-0.256-0.218-0.642-0.25-1.35-0.034-0.768-0.043-0.998-0.043-2.939s0.009-2.175 0.043-2.939c0.031-0.711 0.151-1.094 0.25-1.35 0.122-0.328 0.308-0.608 0.545-0.835l0.001-0.001c0.229-0.235 0.509-0.42 0.821-0.538l0.016-0.005c0.255-0.099 0.642-0.218 1.35-0.25 0.768-0.033 0.998-0.042 2.939-0.042 1.944 0 2.175 0.008 2.939 0.042 0.711 0.031 1.094 0.151 1.35 0.25 0.315 0.116 0.602 0.301 0.835 0.543 0.242 0.236 0.426 0.52 0.543 0.837 0.099 0.255 0.218 0.642 0.25 1.35 0.034 0.768 0.043 0.997 0.043 2.939s-0.009 2.168-0.043 2.936z"></path>
<path fill="#fff" style="fill: var(--color2, #fff)" d="M16.033 12.269c0 0 0 0-0.001 0-2.065 0-3.739 1.674-3.739 3.739s1.674 3.739 3.739 3.739c2.065 0 3.739-1.674 3.739-3.739 0 0 0 0 0-0.001v0c0-2.064-1.674-3.738-3.738-3.738v0zM16.033 18.431c-1.339 0-2.425-1.086-2.425-2.425s1.086-2.425 2.425-2.425c0 0 0 0 0 0v0c1.339 0 2.425 1.086 2.425 2.425s-1.086 2.425-2.425 2.425v0zM20.791 12.121c0 0.482-0.391 0.873-0.873 0.873s-0.873-0.391-0.873-0.873v0c0-0.482 0.391-0.873 0.873-0.873s0.873 0.391 0.873 0.873v0z"></path>
</symbol>
<symbol id="icon-envelope" viewBox="0 0 32 32">
<path fill="#2196f3" style="fill: var(--color1, #2196f3)" d="M28.782 4.098h-25.805c-1.642 0-2.978 1.336-2.978 2.978v17.865c0 1.642 1.336 2.977 2.978 2.977h25.805c1.642 0 2.977-1.336 2.977-2.977v-17.865c0-1.642-1.336-2.978-2.977-2.978zM28.782 6.083c0.135 0 0.264 0.028 0.381 0.077l-13.284 11.513-13.284-11.513c0.112-0.048 0.243-0.077 0.381-0.077h25.805zM28.782 25.933h-25.805c-0.548 0-0.993-0.444-0.993-0.993v0-16.684l13.244 11.479c0.173 0.151 0.401 0.243 0.651 0.243s0.478-0.092 0.652-0.244l-0.002 0.001 13.244-11.479v16.684c0 0.548-0.444 0.993-0.993 0.993v0z"></path>
</symbol>
<symbol id="icon-facebook" viewBox="0 0 32 32">
<path d="M21.328 5.312h2.923v-5.088c-1.232-0.143-2.66-0.224-4.107-0.224-0.052 0-0.104 0-0.157 0h0.008c-4.213 0-7.099 2.65-7.099 7.52v4.48h-4.646v5.688h4.646v14.312h5.699v-14.31h4.459l0.709-5.688h-5.17v-3.922c0-1.643 0.443-2.768 2.734-2.768z"></path>
</symbol>
<symbol id="icon-instagram" viewBox="0 0 32 32">
<path d="M31.968 9.408c-0.074-1.701-0.349-2.869-0.742-3.882-0.424-1.111-1.054-2.059-1.85-2.837l-0.001-0.001c-0.78-0.792-1.724-1.419-2.778-1.827l-0.054-0.018c-1.019-0.394-2.181-0.667-3.882-0.742-1.712-0.082-2.256-0.101-6.602-0.101-4.344 0-4.888 0.019-6.595 0.094-1.699 0.074-2.869 0.349-3.88 0.742-1.112 0.424-2.060 1.054-2.839 1.85l-0.001 0.001c-0.791 0.78-1.418 1.724-1.825 2.778l-0.018 0.054c-0.395 1.019-0.669 2.181-0.744 3.882-0.082 1.712-0.101 2.256-0.101 6.602 0 4.344 0.019 4.888 0.094 6.595 0.075 1.701 0.35 2.869 0.744 3.882 0.426 1.11 1.055 2.057 1.849 2.837l0.001 0.001c0.8 0.813 1.77 1.443 2.832 1.843 1.019 0.395 2.182 0.67 3.882 0.744 1.707 0.075 2.251 0.094 6.595 0.094 4.346 0 4.89-0.019 6.595-0.094 1.701-0.074 2.869-0.349 3.882-0.742 2.157-0.85 3.833-2.526 4.664-4.628l0.019-0.055c0.394-1.019 0.669-2.182 0.744-3.882 0.075-1.707 0.093-2.251 0.093-6.595s-0.006-4.888-0.080-6.595zM29.088 22.474c-0.070 1.563-0.333 2.406-0.55 2.97-0.552 1.399-1.64 2.486-3.004 3.024l-0.036 0.012c-0.56 0.219-1.411 0.482-2.968 0.55-1.688 0.075-2.194 0.094-6.464 0.094-4.269 0-4.782-0.019-6.464-0.094-1.563-0.069-2.406-0.331-2.97-0.55-0.721-0.269-1.334-0.676-1.836-1.192l-0.001-0.001c-0.517-0.503-0.924-1.117-1.184-1.803l-0.011-0.034c-0.218-0.563-0.48-1.413-0.549-2.97-0.075-1.688-0.094-2.195-0.094-6.464s0.019-4.784 0.094-6.464c0.069-1.563 0.331-2.406 0.549-2.97 0.269-0.722 0.678-1.337 1.198-1.837l0.002-0.002c0.504-0.517 1.119-0.923 1.806-1.182l0.034-0.011c0.56-0.219 1.411-0.48 2.968-0.55 1.688-0.074 2.195-0.093 6.464-0.093 4.275 0 4.782 0.019 6.464 0.093 1.563 0.069 2.406 0.331 2.97 0.55 0.693 0.256 1.325 0.662 1.837 1.194 0.531 0.52 0.938 1.144 1.195 1.84 0.218 0.56 0.48 1.411 0.549 2.968 0.075 1.688 0.094 2.194 0.094 6.464 0 4.269-0.019 4.768-0.094 6.458z"></path>
<path d="M16.059 7.782c-4.539 0.002-8.218 3.682-8.219 8.221v0c0.091 4.471 3.737 8.060 8.221 8.060s8.13-3.589 8.221-8.052v-0.009c-0.001-4.54-3.681-8.22-8.221-8.221v0zM16.059 21.334c-2.945 0-5.332-2.388-5.332-5.333s2.388-5.333 5.333-5.333c0 0 0.001 0 0.001 0v0c2.946 0 5.334 2.388 5.334 5.334s-2.388 5.334-5.334 5.334v0zM26.525 7.458c0 1.060-0.86 1.92-1.92 1.92s-1.92-0.86-1.92-1.92v0c0-1.060 0.86-1.92 1.92-1.92s1.92 0.86 1.92 1.92v0z"></path>
</symbol>
<symbol id="icon-linkedin" viewBox="0 0 32 32">
<path d="M31.992 32h0.008v-11.738c0-5.741-1.235-10.163-7.947-10.163-3.227 0-5.392 1.77-6.277 3.45h-0.093v-2.914h-6.365v21.363h6.627v-10.578c0-2.786 0.528-5.48 3.978-5.48 3.398 0 3.45 3.179 3.45 5.658v10.402h6.619zM0.528 10.635h6.635v21.365h-6.635v-21.365zM3.843 0c-2.123 0-3.843 1.721-3.843 3.843v0c0 2.12 1.722 3.878 3.843 3.878 2.12 0 3.842-1.757 3.842-3.878s-1.72-3.841-3.841-3.843v0z"></path>
</symbol>
<symbol id="icon-Logo" viewBox="0 0 32 32">
<path fill="#afb1b8" style="fill: var(--color3, #afb1b8)" d="M11.378 9.113l2.099 1.986-3.895-0.002v9.638h10.181v-3.685l2.096 1.985v-9.921h-10.48zM19.67 16.817l-5.95-5.632h5.95v5.632zM17.823 19.325h-6.63v-6.481h0.469v6.043h6.161v0.438zM12.758 22.018l-0.245 0.505-0.245-0.505h-0.205l0.358 0.673v0.392h0.186v-0.392l0.357-0.673h-0.204zM13.066 23.083l0.086-0.248h0.412l0.087 0.248h0.193l-0.403-1.064h-0.166l-0.402 1.064h0.192zM13.359 22.244l0.154 0.441h-0.308l0.154-0.442zM14.334 22.66c-0.025 0.038-0.040 0.084-0.040 0.134 0 0.001 0 0.001 0 0.002v0c0 0.090 0.031 0.163 0.094 0.218s0.148 0.084 0.253 0.084c0.106 0 0.196-0.029 0.272-0.086l0.060 0.071h0.206l-0.156-0.185c0.061-0.084 0.092-0.191 0.092-0.322h-0.154c0 0.072-0.015 0.137-0.044 0.195l-0.205-0.243 0.072-0.053c0.044-0.030 0.081-0.067 0.109-0.109l0.001-0.002c0.021-0.035 0.034-0.076 0.034-0.121 0-0.001 0-0.001 0-0.002v0c0-0.001 0-0.003 0-0.004 0-0.066-0.029-0.124-0.074-0.165v0c-0.047-0.043-0.111-0.069-0.18-0.069-0.004 0-0.007 0-0.011 0h0.001c-0.086 0-0.154 0.025-0.204 0.073s-0.076 0.114-0.076 0.198c0 0.034 0.008 0.069 0.024 0.106s0.046 0.081 0.087 0.133c-0.079 0.057-0.132 0.106-0.158 0.147zM14.814 22.896c-0.045 0.037-0.104 0.059-0.168 0.060v0c-0.003 0-0.006 0-0.008 0-0.046 0-0.088-0.017-0.119-0.047v0c-0.029-0.029-0.048-0.069-0.048-0.114 0-0.002 0-0.004 0-0.006v0.001c0-0.057 0.029-0.108 0.088-0.152l0.023-0.016 0.232 0.275zM14.623 22.424c-0.051-0.062-0.075-0.113-0.075-0.154 0-0.035 0.011-0.065 0.031-0.088 0.019-0.022 0.047-0.035 0.078-0.035 0.002 0 0.003 0 0.005 0v0c0.001 0 0.002 0 0.004 0 0.029 0 0.056 0.011 0.076 0.030v0c0.021 0.020 0.031 0.043 0.031 0.071 0 0.001 0 0.003 0 0.004 0 0.040-0.017 0.075-0.045 0.099v0l-0.023 0.018-0.081 0.056zM16.356 23.002c0.073-0.064 0.115-0.153 0.126-0.266h-0.184c-0.010 0.076-0.033 0.13-0.070 0.163s-0.091 0.049-0.164 0.049c-0.079 0-0.14-0.030-0.181-0.091s-0.062-0.148-0.062-0.263v-0.094c0.001-0.114 0.023-0.199 0.066-0.258s0.106-0.088 0.186-0.088c0.069 0 0.122 0.017 0.157 0.051s0.058 0.089 0.067 0.165h0.184c-0.012-0.116-0.053-0.207-0.125-0.271s-0.166-0.096-0.284-0.096c-0.087 0-0.164 0.021-0.231 0.062-0.067 0.043-0.12 0.103-0.152 0.174l-0.001 0.003c-0.034 0.075-0.054 0.162-0.054 0.253 0 0.005 0 0.009 0 0.013v-0.001 0.099c0.002 0.098 0.020 0.184 0.055 0.258s0.085 0.131 0.149 0.172c0.065 0.040 0.14 0.060 0.225 0.060 0.121 0 0.218-0.031 0.292-0.095zM17.443 22.853c0.036-0.079 0.054-0.171 0.054-0.275v-0.059c0-0.003 0-0.007 0-0.011 0-0.095-0.020-0.185-0.057-0.266l0.002 0.004c-0.034-0.075-0.088-0.136-0.154-0.179l-0.002-0.001c-0.067-0.042-0.144-0.063-0.231-0.063s-0.163 0.021-0.231 0.063c-0.067 0.042-0.118 0.102-0.155 0.182-0.035 0.077-0.055 0.167-0.055 0.262 0 0.005 0 0.009 0 0.014v-0.001 0.060c0.001 0.102 0.019 0.191 0.056 0.269s0.089 0.138 0.157 0.181c0.068 0.042 0.145 0.063 0.231 0.063 0.088 0 0.165-0.021 0.231-0.063s0.119-0.103 0.155-0.181zM17.245 22.251c0.045 0.063 0.067 0.154 0.067 0.272v0.056c0 0.12-0.022 0.211-0.066 0.273s-0.107 0.094-0.189 0.094c-0.002 0-0.005 0-0.008 0-0.075 0-0.142-0.038-0.182-0.095l-0.001-0.001c-0.045-0.064-0.068-0.154-0.068-0.271v-0.061c0.001-0.115 0.024-0.203 0.069-0.266 0.040-0.057 0.106-0.094 0.18-0.094 0.003 0 0.006 0 0.008 0h-0.001c0.082 0 0.145 0.031 0.19 0.094z"></path>
</symbol>
<symbol id="icon-Logo1" viewBox="0 0 32 32">
<path fill="#afb1b8" style="fill: var(--color3, #afb1b8)" d="M15.005 8.794h-0.041c-0.063-0.004-0.126-0.006-0.189-0.007h-0.136c-0.119 0-0.24 0.003-0.36 0.009-0.004-0.001-0.009-0.001-0.013-0.001s-0.010 0-0.014 0.001h0.001c-1.156 0.067-2.229 0.357-3.199 0.825l0.051-0.022-0.129 0.062v6.63l0.303-0.103c0.266-0.091 0.549-0.173 0.842-0.25 0.724-0.194 1.558-0.31 2.417-0.322h0.007v0.871c-0.108 0.001-0.213 0.003-0.319 0.009h-0.025c-0.68 0.038-1.318 0.14-1.932 0.301l0.067-0.015c-0.844 0.214-1.583 0.511-2.27 0.89l0.049-0.025v-8.503c0.671-0.399 1.447-0.724 2.269-0.935l0.062-0.013c0.659-0.177 1.415-0.28 2.195-0.284h0.13c0.153 0.004 0.303 0.011 0.442 0.021 0.369 0.026 0.735 0.084 1.094 0.175v0.857c-0.305-0.075-0.668-0.131-1.038-0.159l-0.022-0.001-0.022-0.002c-0.074-0.006-0.148-0.012-0.217-0.012zM16.514 9.67c0.19 0.015 0.387 0.021 0.586 0.021 0.822-0.003 1.617-0.111 2.375-0.311l-0.066 0.015c0.844-0.216 1.583-0.512 2.27-0.891l-0.049 0.025v8.351c-0.671 0.399-1.447 0.724-2.269 0.935l-0.062 0.013c-0.659 0.176-1.415 0.28-2.195 0.282h-0.002c-0.016 0-0.035 0-0.054 0-0.573 0-1.128-0.072-1.659-0.207l0.047 0.010v-8.405c0.129 0.030 0.262 0.057 0.396 0.080 0.221 0.038 0.455 0.065 0.682 0.081zM20.764 9.735l-0.303 0.102c-0.278 0.094-0.56 0.177-0.842 0.252-0.755 0.202-1.621 0.319-2.515 0.323h-0.002c-0.198 0-0.38-0.006-0.555-0.017l-0.241-0.016v6.82l0.208 0.018c0.192 0.017 0.391 0.025 0.591 0.025 0.706-0.003 1.388-0.097 2.038-0.269l-0.056 0.013c0.595-0.151 1.11-0.341 1.599-0.579l-0.049 0.022 0.129-0.062v-6.632z"></path>
<path fill="#afb1b8" style="fill: var(--color3, #afb1b8)" d="M10.7 20.555c-0.081-0.084-0.195-0.136-0.321-0.136-0.006 0-0.011 0-0.017 0.001h0.001c-0.002 0-0.005 0-0.007 0-0.068 0-0.133 0.013-0.191 0.038l0.003-0.001c-0.115 0.046-0.204 0.136-0.248 0.249l-0.001 0.003c-0.024 0.060-0.035 0.123-0.035 0.188v1.136c-0.003 0.080 0.012 0.159 0.044 0.233 0.027 0.058 0.066 0.11 0.114 0.152 0.045 0.038 0.098 0.066 0.155 0.081 0.056 0.015 0.113 0.024 0.17 0.024 0.063 0.001 0.126-0.013 0.183-0.039 0.171-0.076 0.287-0.244 0.287-0.438v-0.127h-0.298v0.101c0 0.002 0 0.005 0 0.007 0 0.034-0.006 0.066-0.018 0.096l0.001-0.002c-0.010 0.025-0.025 0.047-0.043 0.064v0c-0.034 0.026-0.077 0.043-0.124 0.043v0c-0.005 0.001-0.011 0.001-0.017 0.001-0.050 0-0.094-0.024-0.122-0.062l-0.001-0.001c-0.025-0.040-0.040-0.089-0.040-0.141 0-0.004 0-0.008 0-0.012v0.001-1.059c-0.002-0.059 0.011-0.117 0.037-0.17 0.027-0.042 0.074-0.070 0.127-0.070 0.006 0 0.012 0.001 0.019 0.001h-0.001c0.002 0 0.003 0 0.006 0 0.052 0 0.098 0.025 0.127 0.064l0.001 0.001c0.031 0.040 0.049 0.091 0.049 0.146 0 0.002 0 0.005 0 0.007v-0.001 0.098h0.294v-0.116c0-0.002 0-0.003 0-0.005 0-0.070-0.013-0.136-0.038-0.198l0.001 0.003c-0.023-0.062-0.057-0.115-0.099-0.16v0zM12.465 20.542c-0.090-0.077-0.208-0.124-0.337-0.125v0c-0.061 0-0.121 0.011-0.177 0.032-0.122 0.044-0.22 0.134-0.271 0.249l-0.001 0.003c-0.030 0.069-0.045 0.144-0.043 0.22v1.089c-0.002 0.077 0.013 0.153 0.043 0.223 0.027 0.059 0.066 0.111 0.115 0.152 0.045 0.042 0.099 0.075 0.157 0.096 0.057 0.021 0.117 0.032 0.177 0.032 0.13-0.001 0.248-0.049 0.339-0.129l-0.001 0.001c0.047-0.043 0.085-0.094 0.112-0.152 0.030-0.070 0.045-0.147 0.043-0.223v-1.090c0-0.003 0-0.006 0-0.010 0-0.076-0.016-0.148-0.045-0.214l0.001 0.003c-0.027-0.062-0.066-0.115-0.112-0.159v0zM12.326 22.011c0.001 0.005 0.001 0.011 0.001 0.017 0 0.056-0.023 0.106-0.059 0.141v0c-0.038 0.031-0.086 0.051-0.14 0.051s-0.102-0.019-0.14-0.051h0.001c-0.037-0.035-0.059-0.085-0.059-0.14 0-0.006 0-0.012 0.001-0.018v0.001-1.090c-0.001-0.005-0.001-0.011-0.001-0.017 0-0.055 0.023-0.105 0.059-0.14v0c0.038-0.031 0.086-0.051 0.14-0.051s0.102 0.019 0.14 0.051h-0.001c0.037 0.035 0.059 0.085 0.059 0.14 0 0.006 0 0.012-0.001 0.018v-0.001 1.090zM14.782 22.498v-2.063h-0.285l-0.375 1.092h-0.005l-0.378-1.092h-0.282v2.063h0.295v-1.255h0.006l0.289 0.887h0.147l0.291-0.887h0.006v1.255h0.295zM16.456 20.579c-0.045-0.051-0.103-0.090-0.167-0.113-0.061-0.020-0.13-0.032-0.203-0.032-0.004 0-0.008 0-0.012 0h-0.437v2.063h0.294v-0.806h0.151c0.092 0.004 0.183-0.015 0.266-0.056 0.067-0.038 0.122-0.091 0.161-0.156l0.001-0.002c0.034-0.055 0.057-0.116 0.067-0.18 0.010-0.065 0.016-0.14 0.016-0.216 0-0.007 0-0.013 0-0.020v0.001c0.003-0.099-0.007-0.198-0.029-0.295-0.021-0.074-0.058-0.138-0.108-0.19v0zM16.304 21.208c-0.001 0.039-0.011 0.076-0.028 0.109l0.001-0.002c-0.017 0.031-0.043 0.057-0.075 0.072l-0.001 0.001c-0.037 0.017-0.079 0.026-0.123 0.026-0.006 0-0.011 0-0.016-0.001h-0.134v-0.701h0.152c0.005 0 0.009-0.001 0.014-0.001 0.043 0 0.084 0.010 0.12 0.027l-0.002-0.001c0.030 0.017 0.054 0.044 0.069 0.075l0.001 0.001c0.016 0.037 0.025 0.075 0.026 0.115v0.137c0 0.048 0.003 0.098 0 0.141h-0.003zM17.848 20.435h-0.241l-0.455 2.063h0.294l0.086-0.443h0.401l0.086 0.443h0.294l-0.465-2.063zM17.577 21.773l0.145-0.748h0.006l0.144 0.748h-0.294zM19.747 21.677h-0.006l-0.444-1.242h-0.283v2.063h0.294v-1.241h0.006l0.449 1.24h0.277v-2.063h-0.294v1.242zM21.543 20.435l-0.236 0.82h-0.006l-0.236-0.82h-0.311l0.404 1.191v0.872h0.294v-0.872l0.404-1.191h-0.312zM9.881 23.080h0.141v0.397h0.096v-0.397h0.141v-0.081h-0.378v0.082zM11.072 22.998l-0.186 0.479h0.102l0.039-0.109h0.191l0.041 0.109h0.105l-0.19-0.479h-0.102zM11.057 23.288l0.065-0.177 0.065 0.177h-0.13zM12.249 23.3h0.111v0.062c-0.031 0.025-0.071 0.040-0.114 0.040v0c-0.002 0-0.005 0-0.007 0-0.038 0-0.072-0.018-0.095-0.045v0c-0.022-0.032-0.035-0.071-0.035-0.114 0-0.004 0-0.007 0.001-0.011v0.001c0-0.107 0.046-0.16 0.138-0.16 0.003-0.001 0.007-0.001 0.010-0.001 0.047 0 0.087 0.033 0.098 0.076v0.001l0.095-0.019c-0.020-0.093-0.088-0.141-0.203-0.141-0.002 0-0.004 0-0.006 0-0.062 0-0.118 0.024-0.161 0.062v0c-0.043 0.042-0.070 0.101-0.070 0.166 0 0.006 0 0.012 0.001 0.019v-0.001c0 0.003 0 0.007 0 0.011 0 0.065 0.023 0.123 0.062 0.169l-0.001-0.001c0.042 0.044 0.102 0.071 0.167 0.071 0.005 0 0.010 0 0.015-0.001h-0.001c0.002 0 0.005 0 0.008 0 0.075 0 0.144-0.029 0.195-0.077v0-0.189h-0.208v0.081zM13.451 22.998h-0.097v0.479h0.335v-0.081h-0.239v-0.397zM14.468 22.998h-0.097v0.479h0.097v-0.479zM15.461 23.318l-0.196-0.32h-0.094v0.479h0.090v-0.313l0.193 0.313h0.097v-0.479h-0.089v0.32zM16.36 23.266h0.239v-0.081h-0.239v-0.105h0.257v-0.082h-0.354v0.479h0.364v-0.081h-0.267v-0.13zM18.538 23.187h-0.189v-0.189h-0.096v0.479h0.096v-0.209h0.189v0.209h0.097v-0.479h-0.097v0.189zM19.442 23.266h0.24v-0.081h-0.24v-0.105h0.258v-0.082h-0.353v0.479h0.363v-0.081h-0.267v-0.13zM20.668 23.266c0.084-0.013 0.126-0.057 0.126-0.133 0.001-0.004 0.001-0.008 0.001-0.013 0-0.038-0.019-0.072-0.048-0.093h-0.001c-0.035-0.018-0.077-0.029-0.121-0.029-0.007 0-0.013 0-0.020 0.001h-0.202v0.479h0.097v-0.2h0.019c0.002 0 0.005 0 0.008 0 0.019 0 0.037 0.004 0.053 0.011l-0.001-0.001c0.014 0.008 0.026 0.021 0.034 0.035l0.104 0.152h0.115l-0.058-0.093c-0.026-0.047-0.062-0.085-0.105-0.114l-0.001-0.001zM20.57 23.2h-0.071v-0.12h0.076c0.006-0.001 0.013-0.001 0.020-0.001 0.027 0 0.054 0.005 0.079 0.013l-0.002-0.001c0.013 0.012 0.021 0.028 0.021 0.047 0 0.021-0.010 0.039-0.025 0.051v0c-0.024 0.008-0.052 0.012-0.080 0.012-0.006 0-0.012 0-0.019-0.001h0.001zM21.592 23.266h0.239v-0.081h-0.239v-0.105h0.258v-0.082h-0.355v0.479h0.364v-0.081h-0.267v-0.13z"></path>
</symbol>
<symbol id="icon-Logo2" viewBox="0 0 32 32">
<path fill="#afb1b8" style="fill: var(--color3, #afb1b8)" d="M10.901 21.72c0.005 0 0.010 0.001 0.014 0.003s0.008 0.004 0.012 0.007v0l0.065 0.062c-0.051 0.051-0.113 0.091-0.184 0.118-0.072 0.027-0.156 0.043-0.244 0.043-0.006 0-0.012 0-0.018 0h0.001c-0.084 0.002-0.167-0.012-0.245-0.040-0.072-0.026-0.133-0.064-0.185-0.112l0.001 0.001c-0.051-0.048-0.090-0.106-0.118-0.17l-0.001-0.003c-0.026-0.064-0.042-0.138-0.042-0.216 0-0.002 0-0.005 0-0.007v0.001c0-0.003 0-0.007 0-0.011 0-0.153 0.066-0.29 0.171-0.384l0.001-0.001c0.056-0.049 0.122-0.087 0.196-0.113 0.080-0.027 0.166-0.040 0.253-0.039 0.005 0 0.010 0 0.016 0 0.078 0 0.153 0.013 0.223 0.038l-0.005-0.002c0.065 0.025 0.124 0.058 0.176 0.101l-0.055 0.066c-0.004 0.005-0.008 0.008-0.013 0.012v0c-0.006 0.003-0.012 0.005-0.019 0.005-0.001 0-0.002 0-0.003 0v0c-0.009-0.001-0.017-0.003-0.024-0.007v0l-0.029-0.018-0.041-0.023c-0.037-0.018-0.081-0.032-0.126-0.039l-0.003-0.001c-0.027-0.005-0.058-0.007-0.090-0.007-0.002 0-0.005 0-0.007 0h0.001c-0.002 0-0.004 0-0.006 0-0.063 0-0.123 0.011-0.179 0.031l0.004-0.001c-0.055 0.019-0.102 0.048-0.143 0.084l0.001-0.001c-0.041 0.038-0.072 0.084-0.092 0.133-0.021 0.050-0.033 0.108-0.033 0.17 0 0.002 0 0.005 0 0.006v-0.001c0 0.002 0 0.005 0 0.007 0 0.062 0.012 0.121 0.034 0.175l-0.001-0.003c0.020 0.049 0.051 0.094 0.091 0.133 0.038 0.036 0.084 0.065 0.136 0.083 0.053 0.019 0.11 0.029 0.168 0.029 0.033 0.001 0.067-0.002 0.1-0.006 0.083-0.008 0.157-0.042 0.216-0.092l-0.001 0.001c0.008-0.007 0.019-0.011 0.031-0.011v0zM12.787 21.406c0 0.002 0 0.005 0 0.007 0 0.077-0.016 0.151-0.045 0.217l0.001-0.003c-0.029 0.067-0.071 0.125-0.122 0.171l-0.001 0.001c-0.054 0.048-0.118 0.086-0.189 0.111l-0.004 0.001c-0.074 0.025-0.159 0.040-0.248 0.040s-0.174-0.015-0.254-0.042l0.006 0.002c-0.074-0.026-0.138-0.065-0.192-0.113l0.001 0.001c-0.052-0.047-0.094-0.105-0.123-0.17l-0.001-0.003c-0.028-0.065-0.044-0.141-0.044-0.221s0.016-0.155 0.045-0.225l-0.002 0.004c0.028-0.065 0.070-0.123 0.124-0.173 0.054-0.048 0.12-0.084 0.191-0.109 0.074-0.026 0.159-0.040 0.248-0.040s0.174 0.015 0.254 0.042l-0.006-0.002c0.072 0.025 0.138 0.064 0.193 0.113s0.096 0.108 0.123 0.171c0.030 0.071 0.045 0.147 0.044 0.222zM12.615 21.406c0-0.003 0-0.006 0-0.010 0-0.061-0.011-0.118-0.033-0.171l0.001 0.003c-0.040-0.102-0.121-0.181-0.222-0.216l-0.003-0.001c-0.054-0.019-0.116-0.029-0.18-0.029s-0.126 0.011-0.185 0.030l0.004-0.001c-0.054 0.019-0.1 0.048-0.138 0.084v0c-0.038 0.036-0.069 0.080-0.088 0.13l-0.001 0.002c-0.020 0.053-0.031 0.113-0.031 0.177s0.011 0.125 0.033 0.181l-0.001-0.003c0.040 0.102 0.122 0.181 0.224 0.215l0.003 0.001c0.116 0.038 0.244 0.038 0.361 0 0.052-0.019 0.099-0.047 0.138-0.083 0.039-0.039 0.069-0.084 0.088-0.133 0.022-0.057 0.033-0.117 0.031-0.177zM14.073 21.592l0.017 0.039c0.006-0.014 0.012-0.027 0.019-0.039 0.007-0.015 0.015-0.028 0.022-0.040l-0.001 0.002 0.417-0.659c0.008-0.011 0.016-0.019 0.024-0.021s0.019-0.004 0.029-0.004c0.002 0 0.004 0 0.006 0v0h0.123v1.072h-0.146v-0.821c-0.001-0.006-0.001-0.012-0.001-0.019s0-0.013 0.001-0.020v0.001l-0.42 0.668c-0.006 0.010-0.014 0.019-0.024 0.024h-0.001c-0.010 0.006-0.022 0.009-0.035 0.009 0 0-0.001 0-0.001 0h-0.024c0 0-0.001 0-0.001 0-0.013 0-0.025-0.003-0.035-0.009h0.001c-0.010-0.006-0.019-0.014-0.024-0.024v-0.001l-0.432-0.673v0.86h-0.141v-1.069h0.123c0.002 0 0.004 0 0.006 0 0.010 0 0.020 0.001 0.029 0.004h-0.001c0.010 0.005 0.018 0.012 0.023 0.021l0.426 0.66c0.008 0.011 0.015 0.024 0.021 0.037l0.001 0.002zM15.643 21.538v0.401h-0.163v-1.070h0.364c0.069-0.001 0.137 0.007 0.203 0.024 0.053 0.013 0.102 0.036 0.144 0.067 0.035 0.027 0.062 0.063 0.081 0.103l0.001 0.002c0.020 0.044 0.029 0.090 0.028 0.137 0 0.002 0 0.005 0 0.007 0 0.097-0.046 0.182-0.117 0.237l-0.001 0.001c-0.042 0.032-0.091 0.056-0.145 0.071-0.055 0.016-0.118 0.025-0.184 0.025-0.005 0-0.009 0-0.013 0l-0.197-0.003zM15.643 21.424h0.198c0.043 0.001 0.086-0.005 0.127-0.016 0.035-0.010 0.065-0.026 0.092-0.047l-0.001 0.001c0.046-0.038 0.075-0.095 0.075-0.158 0-0.001 0-0.002 0-0.003v0c0-0.003 0.001-0.007 0.001-0.012 0-0.027-0.006-0.053-0.017-0.077l0.001 0.001c-0.013-0.029-0.033-0.053-0.057-0.073l-0.001-0.001c-0.054-0.037-0.122-0.058-0.194-0.058-0.009 0-0.018 0.001-0.027 0.001h-0.197v0.441zM17.837 21.941h-0.129c-0.001 0-0.002 0-0.002 0-0.012 0-0.024-0.004-0.034-0.010v0c-0.009-0.006-0.016-0.015-0.021-0.025v-0.001l-0.111-0.259h-0.558l-0.115 0.259c-0.010 0.021-0.031 0.035-0.056 0.035-0.001 0-0.001 0-0.002 0h-0.129l0.49-1.072h0.17l0.496 1.072zM17.029 21.543h0.46l-0.194-0.436c-0.015-0.033-0.027-0.066-0.037-0.101l-0.019 0.056c-0.006 0.017-0.012 0.033-0.018 0.045l-0.193 0.436zM18.543 20.875c0.010 0.005 0.018 0.011 0.024 0.019l0.715 0.808v-0.832h0.146v1.072h-0.081c-0.001 0-0.001 0-0.002 0-0.011 0-0.022-0.002-0.032-0.007h0.001c-0.010-0.005-0.019-0.012-0.026-0.020v0l-0.713-0.807c0.001 0.006 0.001 0.012 0.001 0.019s0 0.013-0.001 0.019v-0.001 0.797h-0.146v-1.072h0.086c0.010 0 0.020 0.002 0.029 0.005zM20.632 21.515v0.426h-0.163v-0.425l-0.451-0.646h0.146c0.001 0 0.002 0 0.003 0 0.012 0 0.022 0.003 0.031 0.009v0c0.009 0.007 0.016 0.015 0.022 0.024l0.282 0.417c0.011 0.018 0.021 0.034 0.029 0.050s0.015 0.030 0.021 0.045l0.021-0.046c0.008-0.017 0.017-0.033 0.028-0.049l0.278-0.419c0.006-0.008 0.013-0.016 0.021-0.022v0c0.009-0.007 0.020-0.011 0.032-0.011 0.001 0 0.002 0 0.003 0h0.148l-0.452 0.648zM13.992 19.071c0.071 0.008 0.143 0.014 0.216 0.020 1.101-0.428 2.033-1.129 2.679-2.014s0.976-1.917 0.951-2.965l-1.214-1.054c0.246 1.116 0.131 2.27-0.333 3.332s-1.26 1.991-2.299 2.683z"></path>
<path fill="#afb1b8" style="fill: var(--color3, #afb1b8)" d="M13.559 19.022l0.033 0.006c1.109-0.689 1.954-1.652 2.427-2.763s0.551-2.32 0.225-3.471l-1.729-1.502c0.699 1.235 0.981 2.617 0.811 3.985s-0.781 2.667-1.767 3.745zM19.423 15.349c-0.294 1.152-1.007 2.191-2.035 2.962-0.281 0.213-0.597 0.414-0.931 0.586l-0.037 0.017c0.837-0.213 1.605-0.591 2.247-1.104s1.14-1.146 1.455-1.853l-0.701-0.609z"></path>
<path fill="#afb1b8" style="fill: var(--color3, #afb1b8)" d="M19.148 15.18l-0.998-0.867c-0.019 0.989-0.343 1.955-0.937 2.799s-1.438 1.534-2.443 1.998h0.005c0.224 0 0.447-0.012 0.67-0.035 0.939-0.333 1.77-0.863 2.416-1.543s1.089-1.488 1.288-2.352zM13.703 10.658l-1.191-1.036c-1.065 0.358-1.981 0.986-2.627 1.803s-0.995 1.785-0.998 2.777c0.004 1.096 0.428 2.16 1.206 3.022s1.864 1.475 3.088 1.741c1.092-1.157 1.732-2.585 1.826-4.079s-0.363-2.975-1.304-4.228zM21.9 15.020c-0.004-1.3-0.601-2.546-1.659-3.466s-2.493-1.438-3.989-1.442c-0.003 0-0.008 0-0.012 0-0.719 0-1.41 0.12-2.055 0.34l0.044-0.013 7.293 6.337c0.237-0.516 0.377-1.12 0.377-1.756v0z"></path>
</symbol>
<symbol id="icon-Logo3" viewBox="0 0 32 32">
<path fill="#2196f3" style="fill: var(--color1, #2196f3)" d="M7.23 13.336h-0.001c-0.718 0-1.3 0.517-1.3 1.155v0.001c0 0.638 0.582 1.155 1.3 1.155h0.001c0.718 0 1.3-0.518 1.3-1.155v-0.001c0-0.638-0.582-1.156-1.3-1.156zM16.826 12.967c-0.002-0.886-0.399-1.736-1.104-2.363s-1.661-0.98-2.658-0.982c-0.998 0.002-1.954 0.354-2.659 0.981s-1.103 1.476-1.105 2.363v4.888s7.526-0.745 7.527-4.886v-0.001zM3.294 19.458c0.002 0.617 0.278 1.208 0.769 1.644s1.155 0.682 1.849 0.684c0.694-0.002 1.359-0.248 1.849-0.684s0.767-1.027 0.769-1.643v-3.401s-5.236 0.519-5.236 3.4zM5.912 20.067c-0.136 0-0.268-0.035-0.381-0.103-0.109-0.065-0.197-0.158-0.251-0.269l-0.002-0.004c-0.033-0.068-0.052-0.148-0.052-0.233 0-0.042 0.005-0.083 0.014-0.123l-0.001 0.004c0.026-0.118 0.091-0.227 0.188-0.312s0.218-0.143 0.351-0.167c0.040-0.007 0.086-0.012 0.134-0.012 0.094 0 0.184 0.017 0.267 0.048l-0.005-0.002c0.125 0.046 0.232 0.124 0.308 0.225s0.116 0.218 0.116 0.339c0.001 0.080-0.017 0.16-0.052 0.234-0.037 0.078-0.087 0.144-0.148 0.198l-0.001 0.001c-0.063 0.057-0.139 0.102-0.223 0.133-0.078 0.030-0.168 0.047-0.262 0.047 0 0-0.001 0-0.001 0v0-0.002zM11.204 19.732h-0.505v0.522h-0.263v-1.278h0.832v0.213h-0.569v0.33h0.505v0.212zM12.469 19.644c0 0.126-0.022 0.236-0.066 0.331s-0.108 0.168-0.191 0.22c-0.078 0.049-0.173 0.077-0.275 0.077-0.003 0-0.007 0-0.010 0h0.001c-0.106 0-0.2-0.025-0.284-0.076-0.084-0.053-0.15-0.127-0.191-0.214l-0.001-0.003c-0.044-0.093-0.069-0.201-0.069-0.315 0-0.004 0-0.008 0-0.012v0.001-0.063c0-0.126 0.022-0.236 0.067-0.332s0.109-0.17 0.192-0.22c0.083-0.052 0.177-0.077 0.284-0.077s0.2 0.026 0.284 0.077c0.083 0.051 0.147 0.124 0.192 0.22s0.069 0.205 0.069 0.331v0.057zM12.202 19.586c0-0.134-0.024-0.236-0.072-0.305-0.043-0.063-0.114-0.104-0.195-0.104-0.003 0-0.007 0-0.011 0h0.001c-0.003 0-0.007 0-0.010 0-0.081 0-0.152 0.041-0.194 0.103l-0.001 0.001c-0.048 0.069-0.072 0.169-0.073 0.302v0.062c0 0.13 0.024 0.231 0.072 0.303s0.117 0.108 0.207 0.108c0.003 0 0.007 0 0.010 0 0.080 0 0.151-0.041 0.193-0.103l0.001-0.001c0.047-0.070 0.071-0.171 0.072-0.304v-0.062zM13.322 19.919c0-0.002 0-0.005 0-0.007 0-0.043-0.021-0.081-0.052-0.106h-0.001c-0.035-0.027-0.098-0.055-0.19-0.084-0.084-0.026-0.156-0.056-0.224-0.091l0.008 0.003c-0.145-0.079-0.218-0.184-0.218-0.317 0-0.069 0.019-0.131 0.058-0.184 0.039-0.054 0.095-0.097 0.168-0.127s0.155-0.045 0.245-0.045c0.091 0 0.172 0.016 0.244 0.050s0.127 0.079 0.166 0.14c0.040 0.060 0.060 0.129 0.060 0.205h-0.263c0-0.058-0.018-0.104-0.055-0.136-0.037-0.033-0.089-0.049-0.155-0.049-0.065 0-0.115 0.014-0.15 0.042-0.033 0.024-0.054 0.061-0.054 0.104 0 0.001 0 0.002 0 0.003v0c0 0.042 0.021 0.076 0.062 0.104s0.104 0.054 0.185 0.079c0.15 0.045 0.259 0.101 0.327 0.168s0.103 0.15 0.103 0.249c0 0.111-0.042 0.198-0.126 0.261s-0.196 0.094-0.337 0.094c-0.098 0-0.188-0.018-0.268-0.054-0.076-0.032-0.139-0.083-0.184-0.147l-0.001-0.001c-0.039-0.059-0.063-0.131-0.063-0.209 0-0.003 0-0.006 0-0.008v0.001h0.264c0 0.141 0.084 0.212 0.253 0.212 0.062 0 0.111-0.012 0.147-0.038 0.032-0.023 0.052-0.060 0.052-0.102 0-0.002 0-0.003 0-0.005v0zM14.727 19.19h-0.391v1.064h-0.263v-1.064h-0.385v-0.213h1.040v0.213zM15.646 19.7h-0.505v0.342h0.593v0.212h-0.856v-1.278h0.854v0.213h-0.591v0.304h0.505v0.206zM16.361 19.786h-0.209v0.468h-0.263v-1.278h0.474c0.151 0 0.267 0.034 0.349 0.101s0.123 0.162 0.123 0.285c0 0.087-0.019 0.16-0.057 0.218-0.042 0.061-0.101 0.109-0.168 0.138l-0.003 0.001 0.276 0.522v0.012h-0.282l-0.24-0.467zM16.152 19.573h0.213c0.066 0 0.117-0.016 0.153-0.050 0.034-0.033 0.054-0.079 0.054-0.13 0-0.003 0-0.007 0-0.010v0.001c0-0.061-0.017-0.108-0.052-0.142s-0.086-0.052-0.157-0.052h-0.212v0.383zM17.746 19.804v0.45h-0.263v-1.278h0.499c0.096 0 0.18 0.017 0.253 0.053s0.129 0.085 0.168 0.15c0.039 0.065 0.059 0.138 0.059 0.22 0 0.125-0.043 0.224-0.129 0.296s-0.204 0.108-0.355 0.108h-0.231zM17.746 19.591h0.235c0.070 0 0.123-0.016 0.159-0.049 0.037-0.033 0.056-0.080 0.056-0.14 0-0.003 0-0.006 0-0.010 0-0.055-0.021-0.105-0.056-0.143v0c-0.037-0.038-0.088-0.058-0.153-0.059h-0.241v0.401zM19.411 19.7h-0.505v0.342h0.593v0.212h-0.856v-1.278h0.854v0.213h-0.591v0.304h0.505v0.206zM20.632 19.19h-0.391v1.064h-0.263v-1.064h-0.386v-0.213h1.040v0.213zM21.552 19.7h-0.505v0.342h0.593v0.212h-0.856v-1.278h0.854v0.213h-0.591v0.304h0.505v0.206zM22.266 19.786h-0.209v0.468h-0.263v-1.278h0.475c0.151 0 0.267 0.034 0.349 0.101s0.123 0.162 0.123 0.285c0 0.087-0.019 0.16-0.057 0.218-0.042 0.061-0.101 0.109-0.169 0.138l-0.003 0.001 0.276 0.522v0.012h-0.282l-0.24-0.467zM22.057 19.573h0.212c0.066 0 0.117-0.016 0.153-0.050 0.034-0.033 0.054-0.079 0.054-0.13 0-0.003 0-0.007 0-0.010v0.001c0-0.061-0.017-0.108-0.052-0.142-0.034-0.034-0.086-0.052-0.157-0.052h-0.212v0.383zM23.604 19.919c0-0.002 0-0.005 0-0.007 0-0.043-0.021-0.082-0.053-0.106h-0.001c-0.035-0.027-0.098-0.055-0.19-0.084-0.084-0.026-0.156-0.056-0.224-0.091l0.008 0.003c-0.145-0.079-0.218-0.184-0.218-0.317 0-0.069 0.020-0.131 0.058-0.184 0.039-0.054 0.095-0.097 0.168-0.127s0.155-0.045 0.245-0.045c0.091 0 0.172 0.016 0.244 0.050s0.127 0.079 0.166 0.14c0.040 0.060 0.060 0.129 0.060 0.205h-0.263c0-0.058-0.018-0.104-0.055-0.136-0.037-0.033-0.089-0.049-0.155-0.049-0.065 0-0.115 0.014-0.15 0.042-0.033 0.024-0.054 0.061-0.054 0.104 0 0.001 0 0.002 0 0.003v0c0 0.042 0.021 0.076 0.062 0.104s0.104 0.054 0.185 0.079c0.15 0.045 0.259 0.101 0.327 0.168s0.103 0.15 0.103 0.249c0 0.111-0.042 0.198-0.126 0.261s-0.196 0.094-0.337 0.094c-0.098 0-0.188-0.018-0.268-0.054-0.076-0.032-0.139-0.083-0.184-0.147l-0.001-0.001c-0.039-0.059-0.063-0.131-0.063-0.209 0-0.003 0-0.006 0-0.008v0.001h0.264c0 0.141 0.084 0.212 0.253 0.212 0.062 0 0.111-0.012 0.147-0.038 0.032-0.023 0.053-0.060 0.053-0.102 0-0.002 0-0.003 0-0.005v0z"></path>
</symbol>
<symbol id="icon-Logo4" viewBox="0 0 32 32">
<path fill="#afb1b8" style="fill: var(--color3, #afb1b8)" d="M8.021 20.268c0.073 0.083 0.112 0.186 0.11 0.293 0.001 0.007 0.001 0.014 0.001 0.022 0 0.066-0.015 0.127-0.041 0.183l0.001-0.003c-0.031 0.067-0.076 0.123-0.13 0.166l-0.001 0.001c-0.124 0.086-0.278 0.137-0.443 0.137-0.018 0-0.036-0.001-0.054-0.002h-0.868v-1.855h0.853c0.015-0.001 0.033-0.002 0.050-0.002 0.157 0 0.303 0.046 0.425 0.126l-0.003-0.002c0.055 0.043 0.099 0.096 0.127 0.156s0.042 0.126 0.038 0.192c0.005 0.102-0.030 0.203-0.099 0.283-0.066 0.074-0.158 0.125-0.259 0.145 0.115 0.019 0.22 0.075 0.294 0.159zM7 19.988h0.365c0.083 0.005 0.165-0.017 0.232-0.062 0.026-0.022 0.047-0.050 0.062-0.081l0.001-0.001c0.011-0.024 0.017-0.052 0.017-0.081 0-0.006 0-0.013-0.001-0.018v0.001c0.001-0.005 0.001-0.010 0.001-0.015 0-0.030-0.006-0.058-0.018-0.085l0.001 0.001c-0.014-0.033-0.035-0.061-0.061-0.082h-0.001c-0.059-0.040-0.131-0.064-0.21-0.064-0.010 0-0.021 0.001-0.030 0.001h-0.358v0.487zM7.632 20.699c0.029-0.023 0.051-0.051 0.066-0.083l0.001-0.002c0.012-0.026 0.019-0.057 0.019-0.089 0-0.005 0-0.010-0.001-0.015v0.001c0-0.004 0.001-0.009 0.001-0.014 0-0.033-0.007-0.065-0.021-0.093l0.001 0.001c-0.017-0.034-0.039-0.063-0.068-0.085l-0.001-0.001c-0.063-0.042-0.14-0.068-0.223-0.068-0.009 0-0.017 0-0.026 0.001h-0.381v0.51h0.387c0.087 0.005 0.173-0.018 0.245-0.065zM9.764 21.066l-0.474-0.726h-0.178v0.726h-0.408v-1.856h0.773c0.017-0.001 0.035-0.002 0.055-0.002 0.182 0 0.35 0.060 0.485 0.161l-0.002-0.002c0.108 0.101 0.173 0.234 0.184 0.374 0.001 0.011 0.001 0.025 0.001 0.039 0 0.135-0.048 0.259-0.129 0.356l0.001-0.001c-0.096 0.099-0.223 0.167-0.365 0.188l-0.003 0.001 0.505 0.742h-0.443zM9.111 20.087h0.334c0.232 0 0.348-0.094 0.348-0.281 0-0.005 0.001-0.010 0.001-0.015 0-0.035-0.007-0.069-0.020-0.099l0.001 0.002c-0.015-0.038-0.038-0.070-0.066-0.096v0c-0.063-0.048-0.143-0.077-0.23-0.077-0.011 0-0.023 0.001-0.034 0.002h-0.336l0.004 0.565zM11.994 20.692h-0.813l-0.143 0.374h-0.428l0.746-1.835h0.463l0.743 1.835h-0.427l-0.141-0.374zM11.885 20.411l-0.297-0.783-0.297 0.783h0.594zM14.786 21.066h-0.405l-0.909-1.262v1.262h-0.404v-1.856h0.404l0.909 1.27v-1.27h0.405v1.856zM17.097 20.622c-0.084 0.14-0.211 0.254-0.367 0.327-0.158 0.074-0.342 0.117-0.537 0.117-0.011 0-0.023 0-0.035-0.001h-0.719v-1.856h0.721c0.010 0 0.022-0.001 0.034-0.001 0.194 0 0.378 0.042 0.544 0.118l-0.008-0.003c0.155 0.072 0.283 0.185 0.366 0.324 0.083 0.151 0.127 0.318 0.127 0.487s-0.043 0.336-0.127 0.487zM16.634 20.577c0.11-0.115 0.178-0.271 0.179-0.443v0c0-0.162-0.063-0.319-0.179-0.443-0.126-0.099-0.286-0.159-0.461-0.159-0.017 0-0.033 0.001-0.049 0.002h-0.279v1.202h0.281c0.014 0.001 0.030 0.002 0.046 0.002 0.174 0 0.335-0.060 0.462-0.161l-0.002 0.001zM12.247 8.886s5.227 1.807 5.117 4.422v4.423s-5.224-1.807-5.115-4.423l-0.002-4.422zM22.022 16.695c0.987-0.622 2.129-1.007 3.322-1.121v-1.385c-1.374 0.485-2.539 1.364-3.322 2.506z"></path>
<path fill="#afb1b8" style="fill: var(--color3, #afb1b8)" d="M21.429 17.113c0.808-1.49 2.209-2.639 3.914-3.213v-3.989s-7.445 2.574-7.287 6.298v6.297s0.332-0.115 0.854-0.331c0-0.201 0-0.405 0.024-0.609 0.154-1.729 1.051-3.33 2.495-4.454z"></path>
<path fill="#afb1b8" style="fill: var(--color3, #afb1b8)" d="M20.721 19.452c0.039-0.437 0.126-0.869 0.26-1.289-0.899 0.97-1.443 2.173-1.557 3.441-0.011 0.119-0.017 0.239-0.020 0.363 0.621-0.272 1.091-0.503 1.552-0.75l-0.12 0.059c-0.132-0.6-0.171-1.214-0.116-1.823zM21.017 19.475c-0.015 0.153-0.023 0.331-0.023 0.511 0 0.403 0.042 0.797 0.122 1.177l-0.006-0.037c2.034-1.115 4.32-2.837 4.231-4.917v-0.181c-1.453 0.149-2.813 0.73-3.87 1.655-0.233 0.524-0.394 1.132-0.452 1.77l-0.002 0.022z"></path>
</symbol>
<symbol id="icon-Logo5" viewBox="0 0 32 32">
<path fill="#afb1b8" style="fill: var(--color3, #afb1b8)" d="M15.997 15.224c-0.114-0.147-0.183-0.335-0.183-0.538 0-0.020 0.001-0.040 0.002-0.060v0.003-0.863c0-0.264 0.060-0.465 0.18-0.604s0.326-0.206 0.618-0.205c0.275 0 0.47 0.059 0.585 0.176 0.126 0.149 0.187 0.332 0.173 0.516v0.203h-0.491v-0.205c0.002-0.067-0.003-0.134-0.015-0.201-0.008-0.049-0.034-0.090-0.070-0.119l-0.001-0.001c-0.044-0.030-0.098-0.047-0.157-0.047-0.007 0-0.015 0.001-0.022 0.001h0.001c-0.006-0.001-0.014-0.001-0.021-0.001-0.062 0-0.119 0.019-0.167 0.051l0.001-0.001c-0.040 0.033-0.070 0.078-0.081 0.13v0.002c-0.012 0.059-0.020 0.127-0.020 0.197 0 0.006 0 0.012 0 0.017v-0.001 1.048c-0.008 0.101 0.014 0.202 0.063 0.294 0.025 0.031 0.058 0.056 0.097 0.071l0.002 0.001c0.029 0.011 0.062 0.018 0.097 0.018 0.011 0 0.021-0.001 0.031-0.002h-0.001c0.006 0.001 0.013 0.001 0.021 0.001 0.057 0 0.111-0.018 0.154-0.049l-0.001 0.001c0.038-0.031 0.065-0.076 0.073-0.126v-0.001c0.011-0.070 0.017-0.14 0.015-0.21v-0.213h0.491v0.194c0.001 0.015 0.002 0.033 0.002 0.051 0 0.186-0.065 0.358-0.173 0.493l0.001-0.002c-0.113 0.128-0.305 0.192-0.588 0.192s-0.496-0.069-0.618-0.211zM18.042 15.233c-0.124-0.135-0.186-0.33-0.186-0.589v-0.908c0-0.257 0.062-0.451 0.186-0.582s0.331-0.197 0.623-0.197c0.289 0 0.495 0.066 0.619 0.197 0.124 0.132 0.187 0.326 0.187 0.582v0.908c0 0.257-0.063 0.453-0.189 0.589s-0.331 0.203-0.618 0.203-0.497-0.069-0.623-0.202zM18.894 15.015c0.044-0.084 0.065-0.176 0.059-0.268v-1.112c0.001-0.009 0.001-0.020 0.001-0.030 0-0.085-0.022-0.166-0.060-0.236l0.001 0.003c-0.026-0.032-0.060-0.057-0.099-0.072l-0.002-0.001c-0.029-0.011-0.062-0.017-0.096-0.017-0.012 0-0.024 0.001-0.035 0.002h0.001c-0.010-0.001-0.021-0.002-0.033-0.002-0.035 0-0.068 0.006-0.099 0.018l0.002-0.001c-0.040 0.015-0.075 0.040-0.101 0.072l-0.001 0.001c-0.045 0.083-0.065 0.173-0.059 0.263v1.117c-0.006 0.093 0.014 0.185 0.059 0.269 0.029 0.028 0.064 0.051 0.104 0.066 0.038 0.015 0.081 0.024 0.126 0.024s0.089-0.009 0.129-0.025l-0.002 0.001c0.040-0.016 0.075-0.038 0.104-0.066v-0.006zM20.063 12.983h0.529l0.397 1.675 0.407-1.675h0.514l0.052 2.418h-0.381l-0.041-1.681-0.392 1.681h-0.305l-0.406-1.687-0.038 1.687h-0.385l0.048-2.418zM22.555 12.983h0.824c0.474 0 0.712 0.229 0.712 0.687 0 0.438-0.25 0.657-0.75 0.657h-0.281v1.075h-0.509l0.003-2.419zM23.259 14.017c0.051 0.006 0.101 0.002 0.15-0.012 0.048-0.013 0.093-0.035 0.13-0.065 0.058-0.082 0.084-0.177 0.074-0.273 0.001-0.008 0.001-0.017 0.001-0.026 0-0.069-0.009-0.135-0.026-0.198l0.001 0.005c-0.008-0.026-0.021-0.048-0.038-0.067v0c-0.018-0.020-0.039-0.036-0.063-0.048l-0.001-0.001c-0.059-0.025-0.128-0.040-0.2-0.040-0.010 0-0.019 0-0.028 0.001h-0.196v0.723h0.198zM24.825 12.983h0.546l0.56 2.418h-0.474l-0.111-0.557h-0.487l-0.114 0.557h-0.481l0.56-2.418zM25.292 14.563l-0.19-1.015-0.19 1.015h0.38zM26.384 12.983h0.357l0.681 1.379v-1.379h0.422v2.418h-0.339l-0.685-1.44v1.44h-0.436l0.001-2.418zM28.833 14.479l-0.566-1.493h0.477l0.346 0.959 0.325-0.959h0.467l-0.56 1.493v0.922h-0.488v-0.922zM16.782 16.459v0.126h-0.415v0.982h-0.174v-0.982h-0.417v-0.126h1.006zM18.083 17.568h-0.134c-0.001 0-0.002 0-0.004 0-0.013 0-0.025-0.004-0.034-0.011v0c-0.010-0.006-0.017-0.015-0.022-0.025v-0.001l-0.12-0.263h-0.576l-0.12 0.263c-0.004 0.012-0.010 0.022-0.019 0.030v0c-0.010 0.007-0.022 0.011-0.035 0.011-0.001 0-0.002 0-0.003 0h-0.134l0.509-1.109h0.177l0.515 1.105zM17.241 17.156h0.48l-0.204-0.451c-0.013-0.029-0.026-0.063-0.036-0.099l-0.002-0.006c-0.007 0.021-0.013 0.042-0.019 0.059l-0.019 0.047-0.201 0.451zM18.96 17.459c0.032 0.002 0.064 0.002 0.096 0 0.027-0.002 0.054-0.007 0.081-0.013 0.025-0.005 0.049-0.012 0.074-0.020 0.022-0.008 0.045-0.017 0.068-0.027v-0.249h-0.203c-0.001 0-0.001 0-0.002 0-0.010 0-0.019-0.003-0.026-0.009v0c-0.003-0.002-0.006-0.006-0.008-0.009v0c-0.002-0.003-0.002-0.006-0.002-0.010 0-0.001 0-0.001 0-0.001v0-0.085h0.395v0.425c-0.062 0.038-0.133 0.069-0.209 0.089l-0.006 0.001c-0.042 0.011-0.084 0.019-0.127 0.023-0.049 0.005-0.099 0.007-0.149 0.007-0.002 0-0.004 0-0.007 0-0.089 0-0.175-0.015-0.255-0.043l0.006 0.002c-0.079-0.027-0.146-0.067-0.204-0.117l0.001 0.001c-0.054-0.048-0.099-0.107-0.13-0.172l-0.001-0.003c-0.030-0.066-0.047-0.142-0.047-0.223 0-0.002 0-0.005 0-0.007v0.001c0-0.002 0-0.005 0-0.007 0-0.081 0.017-0.159 0.047-0.229l-0.002 0.004c0.029-0.066 0.074-0.126 0.131-0.176s0.127-0.089 0.204-0.115c0.087-0.029 0.18-0.043 0.272-0.042 0.047 0 0.095 0.003 0.141 0.010 0.042 0.006 0.082 0.015 0.121 0.028 0.036 0.011 0.070 0.026 0.102 0.044 0.031 0.017 0.061 0.037 0.089 0.058l-0.049 0.069c-0.004 0.006-0.010 0.011-0.016 0.015v0c-0.007 0.004-0.015 0.006-0.024 0.006v0c-0.012 0-0.022-0.003-0.032-0.009h0.001c-0.021-0.010-0.037-0.019-0.053-0.028l0.003 0.002c-0.019-0.011-0.042-0.021-0.065-0.029l-0.003-0.001c-0.026-0.010-0.057-0.018-0.090-0.024l-0.004-0.001c-0.037-0.006-0.079-0.010-0.122-0.010-0.002 0-0.005 0-0.007 0h0.001c-0.002 0-0.004 0-0.006 0-0.068 0-0.134 0.011-0.194 0.032l0.005-0.001c-0.057 0.020-0.108 0.049-0.15 0.088-0.040 0.038-0.072 0.084-0.093 0.135l-0.001 0.003c-0.021 0.055-0.034 0.118-0.034 0.185s0.012 0.13 0.035 0.189l-0.001-0.003c0.022 0.052 0.057 0.1 0.102 0.14 0.042 0.038 0.092 0.068 0.148 0.088 0.065 0.019 0.133 0.026 0.202 0.022zM20.582 17.442h0.555v0.126h-0.725v-1.109h0.173l-0.004 0.982zM21.715 17.568h-0.173v-1.109h0.173v1.109zM22.361 16.464c0.011 0.005 0.019 0.012 0.026 0.020v0l0.743 0.836c-0.001-0.006-0.001-0.013-0.001-0.020s0-0.014 0.001-0.021v0.001-0.826h0.152v1.114h-0.088c-0.002 0-0.004 0-0.006 0-0.012 0-0.022-0.002-0.033-0.007h0.001c-0.011-0.006-0.020-0.012-0.027-0.021v0l-0.743-0.835v0.862h-0.145v-1.109h0.090c0.010 0 0.020 0.002 0.029 0.005zM24.564 16.459v0.122h-0.616v0.366h0.5v0.118h-0.5v0.378h0.616v0.122h-0.796v-1.107h0.796zM6.337 9.609l7.724 1.893v6.635l-7.724-1.892v-6.636zM5.841 9.043v7.524l8.714 2.137v-7.523l-8.714-2.137z"></path>
<path fill="#afb1b8" style="fill: var(--color3, #afb1b8)" d="M10.511 22.196l-8.715-2.138v-7.522l8.715 2.138v7.523z"></path>
<path fill="#afb1b8" style="fill: var(--color3, #afb1b8)" d="M5.986 9.524l7.623 1.869-3.242 2.8-7.624-1.871 3.243-2.799zM5.841 9.044l-4.044 3.491 8.715 2.138 4.043-3.492-8.714-2.137zM11.001 21.772l3.553-3.069-3.554-0.871v3.941z"></path>
</symbol>
<symbol id="icon-smartphone" viewBox="0 0 32 32">
<path fill="#757575" style="fill: var(--color4, #757575)" d="M23.002 0h-14.003c-1.654 0-3.001 1.346-3.001 3.001v26.006c0 1.654 1.346 3.001 3.001 3.001h14.003c1.654 0 3.001-1.346 3.001-3.001v-26.006c0-1.654-1.346-3.001-3.001-3.001zM8.998 2.001h14.003c0.552 0 1 0.448 1 1v0 21.005h-16.004v-21.005c0-0.552 0.448-1 1-1v0zM23.002 30.007h-14.003c-0.552 0-1-0.448-1-1v0-3.001h16.004v3.001c0 0.552-0.448 1-1 1v0z"></path>
<path fill="#757575" style="fill: var(--color4, #757575)" d="M10.707 27.485c0.18 0.164 0.293 0.399 0.293 0.66s-0.113 0.497-0.292 0.66l-0.001 0.001c-0.186 0.17-0.435 0.275-0.708 0.275s-0.522-0.104-0.709-0.275l0.001 0.001c-0.18-0.164-0.293-0.399-0.293-0.66s0.113-0.497 0.292-0.66l0.001-0.001c0.186-0.17 0.435-0.275 0.708-0.275s0.522 0.104 0.709 0.275l-0.001-0.001z"></path>
</symbol>
<symbol id="icon-studio-antenna" viewBox="0 0 32 32">
<path fill="#212121" style="fill: var(--color5, #212121)" d="M30.773 22.098l-8.443-8.505 0.937-4.616c0.225 0.090 0.485 0.144 0.758 0.146h0.007c0.008 0 0.017 0 0.026 0 1.192 0 2.159-0.967 2.159-2.159s-0.967-2.159-2.159-2.159c-1.192 0-2.159 0.967-2.159 2.159 0 0.259 0.046 0.508 0.13 0.739l-0.005-0.015-4.96 0.606-8.091-8.133c-0.096-0.098-0.229-0.159-0.376-0.16h-0c-0.14 0.001-0.274 0.057-0.373 0.155l-1.512 1.504c-0.096 0.097-0.156 0.23-0.156 0.377s0.060 0.281 0.156 0.377v0l0.814 0.825c-1.143 2.062-1.816 4.522-1.816 7.139 0 4.106 1.656 7.824 4.336 10.525l-0.001-0.001c0.043 0.041 0.092 0.074 0.146 0.097-0.032 0.164-0.051 0.353-0.052 0.546v6.188h-6.4c-1.472 0.001-2.666 1.194-2.667 2.666v1.067c0 0.295 0.239 0.534 0.534 0.534h24.534c0.294 0 0.533-0.239 0.533-0.534v-1.067c-0.002-1.472-1.195-2.665-2.666-2.666h-6.4v-2.742c1.003 0.21 2.024 0.317 3.049 0.32 2.58-0.003 5.005-0.663 7.117-1.822l-0.077 0.039 0.818 0.823c0.099 0.101 0.235 0.159 0.376 0.16 0.14-0.001 0.274-0.057 0.373-0.155l1.512-1.504c0.096-0.097 0.156-0.23 0.156-0.377s-0.060-0.281-0.156-0.377v0zM23.28 6.233c0.193-0.192 0.459-0.31 0.752-0.31 0.589 0 1.067 0.478 1.067 1.066s-0.477 1.066-1.067 1.066c-0 0-0 0-0 0h-0.004c-0.587-0.003-1.061-0.479-1.061-1.066 0-0.295 0.12-0.563 0.314-0.756l0-0h-0.002zM22.024 9.737l-0.598 2.946-1.175-1.183 1.774-1.763zM21.419 8.835l-1.92 1.909-1.486-1.493 3.406-0.416zM24.004 28.8c0.884 0 1.6 0.716 1.6 1.6v0 0.534h-23.466v-0.534c0-0.884 0.716-1.6 1.6-1.6v0h20.267zM16.538 26.666v1.067h-5.334v-1.067h5.334zM11.204 25.6v-4.053c0-1.294 1.196-2.346 2.667-2.346s2.667 1.053 2.667 2.346v4.053h-5.334zM17.604 23.904v-2.357c0-1.882-1.675-3.413-3.733-3.413-0.017-0-0.038-0-0.058-0-1.353 0-2.54 0.707-3.213 1.771l-0.009 0.016c-2.36-2.482-3.812-5.846-3.812-9.55 0-2.314 0.567-4.496 1.569-6.414l-0.036 0.077 18.602 18.709c-1.823 0.947-3.979 1.502-6.266 1.502-1.079 0-2.128-0.124-3.136-0.357l0.093 0.018zM28.893 23.22l-21.057-21.181 0.754-0.752 7.935 7.98c0.004 0 0.006 0.007 0.010 0.010l13.114 13.191-0.757 0.752z"></path>
<path fill="#2196f3" style="fill: var(--color1, #2196f3)" d="M13.876 20.267h-0.005c-0.001 0-0.002 0-0.002 0-0.884 0-1.6 0.716-1.6 1.6s0.715 1.599 1.597 1.6h0.005c0.001 0 0.001 0 0.002 0 0.884 0 1.6-0.716 1.6-1.6s-0.715-1.599-1.598-1.6h-0zM14.249 22.245c-0.096 0.096-0.229 0.155-0.376 0.155-0.295 0-0.534-0.239-0.534-0.534s0.238-0.533 0.532-0.533h0c0.293 0.001 0.531 0.239 0.531 0.533 0 0.148-0.060 0.282-0.157 0.378l-0 0h0.005z"></path>
</symbol>
<symbol id="icon-studio-astronaut" viewBox="0 0 32 32">
<path fill="#2196f3" style="fill: var(--color1, #2196f3)" d="M31.974 4.524c-0.064-0.191-0.227-0.332-0.427-0.362l-0.003-0-1.911-0.278-0.855-1.731c-0.179-0.365-0.777-0.365-0.956 0l-0.855 1.731-1.911 0.278c-0.26 0.039-0.457 0.26-0.457 0.528 0 0.15 0.062 0.285 0.161 0.382l1.383 1.348-0.326 1.903c-0.034 0.2 0.048 0.402 0.212 0.522 0.166 0.12 0.383 0.135 0.562 0.040l1.709-0.899 1.709 0.899c0.072 0.038 0.157 0.061 0.247 0.061 0.295 0 0.534-0.239 0.534-0.534 0-0.031-0.003-0.062-0.008-0.092l0 0.003-0.326-1.903 1.383-1.348c0.099-0.097 0.161-0.233 0.161-0.382 0-0.059-0.009-0.115-0.027-0.168l0.001 0.004zM29.511 5.851c-0.126 0.122-0.183 0.299-0.153 0.472l0.191 1.114-1-0.526c-0.072-0.039-0.158-0.062-0.249-0.062s-0.177 0.023-0.252 0.063l0.003-0.001-1 0.526 0.191-1.114c0.005-0.027 0.008-0.059 0.008-0.091 0-0.149-0.061-0.285-0.16-0.381l-0-0-0.811-0.79 1.119-0.162c0.174-0.025 0.324-0.134 0.402-0.292l0.5-1.013 0.5 1.013c0.078 0.158 0.228 0.267 0.402 0.292l1.119 0.162-0.809 0.79zM26.134 20.522h-1.067v1.067h1.067v-1.067zM26.134 22.656h-1.067v1.066h1.067v-1.066zM27.2 21.589h-1.067v1.067h1.067v-1.067zM25.067 21.589h-1.067v1.067h1.067v-1.067zM22.4 26.389h-1.067v1.067h1.067v-1.067zM22.4 28.523h-1.067v1.067h1.067v-1.067zM23.467 27.456h-1.067v1.067h1.067v-1.067zM21.334 27.456h-1.067v1.067h1.067v-1.067zM16 24.256h-1.066v1.067h1.066v-1.067zM16 26.389h-1.066v1.067h1.066v-1.067zM17.067 25.322h-1.067v1.067h1.067v-1.067zM14.934 25.322h-1.067v1.067h1.067v-1.067zM5.867 6.122h-1.066v1.066h1.066v-1.066zM5.867 8.256h-1.066v1.066h1.066v-1.066zM6.933 7.189h-1.067v1.067h1.066v-1.067zM4.8 7.189h-1.067v1.067h1.067v-1.067z"></path>
<path fill="#212121" style="fill: var(--color5, #212121)" d="M24.715 14.16c-0.28-0.376-0.698-0.636-1.179-0.703l-0.009-0.001c-0.076-0.012-0.164-0.018-0.254-0.018-0.411 0-0.789 0.139-1.090 0.373l0.004-0.003-1.253 0.96-1.898 1.417-1.358-0.541c2.421-1.086 4.113-3.508 4.113-6.32 0-3.823-3.122-6.934-6.961-6.934s-6.961 3.11-6.961 6.934c0 1.386 0.415 2.674 1.12 3.759l-2.768-0.024c-0.009 0-0.016 0.005-0.023 0.005-0.057 0.003-0.11 0.014-0.159 0.033l0.004-0.001c-0.013 0.005-0.026 0.007-0.038 0.013-0.006 0.003-0.013 0.003-0.019 0.006l-3.233 1.596c-0 0-0.001 0-0.001 0.001l-1.893 0.91c-0.024 0.011-0.045 0.023-0.065 0.036l0.001-0.001c-0.482 0.324-0.795 0.867-0.795 1.483 0 0.297 0.073 0.577 0.201 0.823l-0.005-0.010c0.22 0.424 0.592 0.742 1.043 0.885l0.013 0.003c0.161 0.053 0.345 0.083 0.537 0.083 0.308 0 0.598-0.078 0.851-0.216l-0.009 0.005 1.388-0.738 2.264-1.169 1.357-0.008-5.442 5.415c0 0.001-0.001 0.001-0.001 0.001l-1.339 1.333c-0.303 0.299-0.491 0.714-0.491 1.173 0 0.002 0 0.003 0 0.005v-0c0.002 0.919 0.748 1.664 1.667 1.664 0.001 0 0.002 0 0.002 0h-0c0.428 0 0.854-0.162 1.18-0.485l1.314-1.309 1.741-1.3 0.901 0.897-3.102 3.088c-0.303 0.299-0.491 0.714-0.491 1.173 0 0.001 0 0.003 0 0.004v-0c0 0.445 0.174 0.864 0.49 1.179 0.302 0.3 0.717 0.485 1.176 0.485 0.001 0 0.002 0 0.003 0h-0c0.427 0 0.855-0.162 1.18-0.485l4.488-4.472c0.007-0.006 0.016-0.009 0.022-0.016l5.166-5.658 3.471 0.494c0.025 0.004 0.050 0.006 0.075 0.006 0.064 0 0.127-0.016 0.187-0.038 0.017-0.006 0.032-0.015 0.049-0.023 0.019-0.010 0.039-0.015 0.058-0.027l3.213-2.133c0.012-0.008 0.018-0.021 0.029-0.030 0.013-0.010 0.029-0.014 0.041-0.026l1.271-1.191c0.348-0.326 0.564-0.787 0.564-1.3 0-0.4-0.132-0.769-0.355-1.066l0.003 0.005zM2.13 17.77c-0.098 0.054-0.215 0.086-0.34 0.086-0.078 0-0.153-0.013-0.224-0.036l0.005 0.001c-0.294-0.093-0.504-0.364-0.504-0.683 0-0.235 0.114-0.444 0.289-0.575l0.002-0.001 1.314-0.632 0.316 0.924 0.133 0.389-0.992 0.527zM5.627 15.942l-1.548 0.8-0.255-0.746-0.184-0.537 2.027-1.001-0.040 1.484zM20.727 9.322c0 0.918-0.219 1.785-0.599 2.56l-4.181-1.899c-0.044-0.575-0.342-1.072-0.782-1.384l-0.006-0.004 1.464-4.861c2.377 0.757 4.104 2.975 4.104 5.588zM8.938 9.322c0-3.235 2.644-5.867 5.894-5.867 0.253 0 0.5 0.022 0.745 0.053l-1.432 4.753c-0.019 0-0.037-0.006-0.057-0.006-0 0-0.001 0-0.001 0-1.032 0-1.869 0.835-1.872 1.867v0c0.003 1.031 0.84 1.867 1.872 1.867 0 0 0 0 0.001 0h-0c0.695 0 1.295-0.383 1.618-0.944l3.863 1.755c-1.075 1.447-2.795 2.39-4.737 2.39-3.25 0-5.894-2.632-5.894-5.867zM14.895 10.122c0 0.441-0.362 0.8-0.806 0.8-0 0-0.001 0-0.001 0-0.443 0-0.802-0.358-0.804-0.8v-0c0-0.441 0.361-0.8 0.806-0.8s0.806 0.359 0.806 0.8zM2.464 25.146c-0.11 0.109-0.261 0.176-0.428 0.176s-0.317-0.067-0.427-0.175l0 0c-0.109-0.108-0.176-0.257-0.176-0.422s0.067-0.314 0.176-0.422l0-0 0.962-0.959 0.852 0.848-0.959 0.954zM5.678 28.88c-0.11 0.109-0.261 0.176-0.428 0.176s-0.317-0.067-0.427-0.175l0 0c-0.109-0.108-0.176-0.257-0.176-0.422s0.067-0.314 0.176-0.422l0-0 0.963-0.959 0.852 0.848-0.96 0.955zM9.16 25.411l-0.001 0.001-1.765 1.76-0.852-0.848 1.765-1.757c0.040-0.040 0.065-0.088 0.090-0.136 0.007-0.014 0.020-0.026 0.026-0.040 0.016-0.041 0.019-0.085 0.026-0.128 0.003-0.025 0.014-0.048 0.014-0.073 0-0.035-0.013-0.070-0.020-0.105-0.006-0.032-0.006-0.064-0.019-0.096-0.025-0.053-0.055-0.098-0.092-0.138l0 0c-0.010-0.012-0.014-0.026-0.025-0.038h-0.001s0-0.001-0.001-0.002l-1.607-1.6c-0.017-0.017-0.039-0.024-0.058-0.038-0.025-0.021-0.054-0.040-0.084-0.056l-0.003-0.001c-0.026-0.012-0.058-0.023-0.090-0.031l-0.003-0.001c-0.030-0.009-0.065-0.017-0.101-0.020l-0.002-0c-0.007-0-0.015-0-0.023-0-0.026 0-0.051 0.002-0.075 0.005l0.003-0c-0.036 0.005-0.069 0.009-0.104 0.021s-0.064 0.027-0.094 0.045c-0.020 0.011-0.043 0.015-0.061 0.029l-1.774 1.324-0.901-0.897 2.399-2.386 4.36 4.289-0.928 0.919zM15.979 18.394c-0.016-0.002-0.030 0.004-0.046 0.003-0.008-0-0.017-0.001-0.027-0.001-0.031 0-0.062 0.003-0.092 0.008l0.003-0c-0.070 0.011-0.132 0.035-0.187 0.070l0.002-0.001c-0.030 0.018-0.057 0.037-0.083 0.061-0.013 0.011-0.028 0.016-0.040 0.029l-4.698 5.146-4.328-4.256 2.833-2.818c0.096-0.097 0.156-0.23 0.156-0.377 0-0.295-0.239-0.534-0.534-0.534-0.001 0-0.001 0-0.002 0h0l-2.219 0.013 0.028-1.607 3.104 0.027c1.264 1.297 3.027 2.101 4.978 2.101 0.001 0 0.002 0 0.003 0h-0c0.438 0 0.864-0.046 1.28-0.122 0.040 0.032 0.080 0.064 0.129 0.085l2.41 0.96 0.152 0.758 0.178 0.886-3.003-0.427zM20.020 18.572l-0.313-1.558 1.446-1.080 0.946 1.257-2.080 1.381zM23.773 15.741l-0.837 0.785-0.931-1.236 0.831-0.637c0.155-0.119 0.351-0.168 0.543-0.143 0.193 0.027 0.364 0.128 0.48 0.284 0.088 0.117 0.141 0.265 0.141 0.426 0 0.206-0.087 0.391-0.226 0.521l-0 0z"></path>
<path fill="#212121" style="fill: var(--color5, #212121)" d="M13.602 18.544l-2.143-2.134c-0.096-0.096-0.229-0.155-0.376-0.155s-0.28 0.059-0.376 0.155l-2.143 2.133c-0.097 0.097-0.156 0.23-0.156 0.378s0.060 0.281 0.156 0.378l-0-0 2.142 2.134c0.096 0.096 0.229 0.156 0.376 0.156s0.28-0.059 0.376-0.156v0l2.143-2.134c0.097-0.097 0.157-0.23 0.157-0.378s-0.060-0.281-0.157-0.378l-0-0zM11.083 20.303l-1.387-1.381 1.386-1.381 1.387 1.381-1.387 1.381zM17.164 5.071l-0.258 1.036c0.071 0.018 1.738 0.452 1.738 2.149h1.067c0-2.017-1.666-2.965-2.547-3.184zM19.711 9.322h-1.067v1.066h1.067v-1.066z"></path>
</symbol>
<symbol id="icon-studio-clock" viewBox="0 0 32 32">
<path fill="#212121" style="fill: var(--color5, #212121)" d="M31.296 15.301c-0.001-8.452-6.855-15.303-15.308-15.301s-15.303 6.855-15.301 15.308c0.002 6.788 4.422 12.543 10.541 14.545l0.108 0.031c0.061 0.019 0.123 0.029 0.187 0.029 0.12 0 0.238-0.032 0.342-0.094 0.135-0.080 0.236-0.207 0.283-0.357l3.865-12.25c1.054-0.004 1.906-0.859 1.906-1.913 0-1.056-0.856-1.913-1.913-1.913-0.303 0-0.59 0.071-0.845 0.196l0.011-0.005-5.106-5.107c-0.114-0.11-0.271-0.179-0.443-0.179-0.352 0-0.638 0.286-0.638 0.638 0 0.172 0.068 0.328 0.179 0.443l-0-0 5.103 5.109c-0.121 0.241-0.191 0.525-0.191 0.826 0 0.602 0.283 1.137 0.723 1.48l0.004 0.003-3.682 11.673c-7.278-2.681-11.004-10.754-8.324-18.032s10.754-11.004 18.032-8.323c7.278 2.681 11.004 10.754 8.323 18.032-1.345 3.581-4.003 6.406-7.374 7.938l-0.088 0.036-0.398-1.874c-0.063-0.291-0.318-0.506-0.624-0.506-0.164 0-0.313 0.062-0.426 0.163l0.001-0.001-3.837 3.426c-0.132 0.117-0.214 0.287-0.214 0.477 0 0.283 0.185 0.524 0.441 0.606l0.005 0.001 4.899 1.563c0.058 0.020 0.126 0.031 0.196 0.031 0.352 0 0.637-0.285 0.637-0.637 0-0.047-0.005-0.093-0.015-0.138l0.001 0.004-0.391-1.839c5.528-2.374 9.329-7.772 9.329-14.057 0-0.011 0-0.023-0-0.034v0.002zM15.992 14.664c0.352 0 0.638 0.286 0.638 0.638s-0.285 0.638-0.638 0.638v0c-0.352 0-0.638-0.286-0.638-0.638s0.286-0.638 0.638-0.638v0zM18.092 29.528l2.184-1.948 0.603 2.84-2.787-0.892z"></path>
<path fill="#2196f3" style="fill: var(--color1, #2196f3)" d="M15.354 3.185v1.275c0 0.352 0.286 0.638 0.638 0.638s0.638-0.285 0.638-0.638v0-1.275c0-0.352-0.285-0.638-0.638-0.638s-0.638 0.285-0.638 0.638v0zM3.876 14.664c-0.352 0-0.638 0.286-0.638 0.638s0.285 0.638 0.638 0.638h1.275c0.352 0 0.638-0.286 0.638-0.638s-0.285-0.638-0.638-0.638h-1.275zM28.108 15.939c0.352 0 0.638-0.286 0.638-0.638s-0.285-0.638-0.638-0.638h-1.275c-0.352 0-0.638 0.286-0.638 0.638s0.285 0.638 0.638 0.638h1.275z"></path>
</symbol>
<symbol id="icon-studio-diagram" viewBox="0 0 32 32">
<path fill="#2196f3" style="fill: var(--color1, #2196f3)" d="M14.926 14.965h1.066v4.798h-1.066v-4.798zM19.19 17.097h1.066v2.665h-1.066v-2.665zM10.661 18.696h1.066v1.066h-1.066v-1.066zM7.463 18.163h1.066v1.599h-1.066v-1.599z"></path>
<path fill="#212121" style="fill: var(--color5, #212121)" d="M1.599 28.291h25.586c0 0 0 0 0 0 0.883 0 1.599-0.716 1.599-1.599v0-2.132c0-0.883-0.716-1.599-1.599-1.599v0h-0.533v-13.294l3.028-2.868c0.207 0.104 0.452 0.166 0.711 0.166 0.888 0 1.608-0.72 1.608-1.608s-0.72-1.608-1.608-1.608c-0.888 0-1.608 0.72-1.608 1.608 0 0.247 0.056 0.481 0.155 0.69l-0.004-0.010-2.281 2.162v-1.23c0-0.883-0.716-1.599-1.599-1.599v0h-21.323c-0.883 0-1.599 0.716-1.599 1.599v0 15.992h-0.533c-0.883 0-1.599 0.716-1.599 1.599v0 2.132c0 0.883 0.716 1.599 1.599 1.599v0zM30.384 4.837c0.294 0 0.533 0.239 0.533 0.533s-0.239 0.533-0.533 0.533v0c-0.294 0-0.533-0.239-0.533-0.533s0.239-0.533 0.533-0.533v0zM3.198 6.969c0-0.294 0.239-0.533 0.533-0.533h21.323c0.294 0 0.533 0.239 0.533 0.533v2.239l-1.066 1.013v-2.185c0-0.295-0.239-0.534-0.534-0.534h-19.189c-0.294 0-0.534 0.239-0.534 0.533v13.327c0 0.294 0.239 0.533 0.534 0.533h19.189c0.295 0 0.534-0.239 0.534-0.533v-9.675l1.066-1.010v12.283h-22.389v-15.991zM7.996 13.899c-0.001 0-0.003 0-0.005 0-0.883 0-1.599 0.716-1.599 1.599s0.716 1.599 1.599 1.599c0.432 0 0.824-0.172 1.112-0.45l-0 0 1.853 0.93c0.215 0.107 0.476 0.057 0.636-0.122l3.939-4.432 3.872 2.902c0.208 0.155 0.498 0.139 0.686-0.039l3.365-3.188v8.131h-18.123v-12.261h18.123v2.661l-3.771 3.572-3.904-2.927c-0.088-0.067-0.2-0.107-0.32-0.107-0.158 0-0.3 0.069-0.398 0.178l-0 0.001-3.993 4.493-1.493-0.746c0.011-0.064 0.017-0.128 0.020-0.193 0-0.883-0.716-1.599-1.599-1.599v0zM8.529 15.498c0 0.294-0.239 0.533-0.533 0.533s-0.533-0.239-0.533-0.533v0c0-0.294 0.239-0.533 0.533-0.533s0.533 0.239 0.533 0.533v0zM11.727 24.026h5.33v0.533c0 0.294-0.238 0.533-0.533 0.533h-4.265c-0.294 0-0.533-0.239-0.533-0.533v0-0.533zM1.067 24.56c0-0.294 0.238-0.533 0.533-0.533h9.062v0.533c0 0.883 0.716 1.599 1.599 1.599v0h4.265c0.883 0 1.599-0.716 1.599-1.599v0-0.533h9.062c0.294 0 0.533 0.239 0.533 0.533v2.132c0 0.294-0.239 0.533-0.533 0.533h-25.586c-0 0-0 0-0 0-0.294 0-0.533-0.239-0.533-0.533 0 0 0 0 0 0v0-2.132z"></path>
</symbol>
<symbol id="icon-twitter" viewBox="0 0 32 32">
<path d="M32 6.078c-1.1 0.493-2.376 0.857-3.713 1.028l-0.068 0.007c1.36-0.817 2.382-2.078 2.873-3.579l0.013-0.046c-1.197 0.722-2.591 1.273-4.076 1.573l-0.084 0.014c-1.2-1.279-2.9-2.076-4.787-2.076-3.622 0-6.558 2.936-6.558 6.558 0 0.001 0 0.003 0 0.004v0c0 0.52 0.043 1.021 0.152 1.496-5.454-0.266-10.28-2.88-13.522-6.861-0.564 0.949-0.899 2.092-0.902 3.313v0.001c0 2.272 1.171 4.286 2.914 5.451-1.091-0.030-2.107-0.325-2.994-0.823l0.033 0.017v0.072c0.003 3.165 2.236 5.807 5.213 6.44l0.043 0.008c-0.499 0.136-1.071 0.215-1.662 0.215-0.020 0-0.041 0-0.061 0h0.003c-0.419 0-0.843-0.024-1.242-0.112 0.85 2.598 3.261 4.509 6.13 4.57-2.215 1.746-5.045 2.8-8.122 2.8-0.004 0-0.008 0-0.013 0h0.001c-0.018 0-0.040 0-0.062 0-0.531 0-1.055-0.034-1.569-0.099l0.061 0.006c2.826 1.846 6.287 2.944 10.004 2.944 0.021 0 0.042 0 0.063 0h-0.003c12.072 0 18.672-10 18.672-18.669 0-0.288-0.010-0.57-0.024-0.848 1.299-0.936 2.39-2.064 3.258-3.355l0.030-0.047z"></path>
</symbol>
</defs>
</svg>
